<?xml version="1.0" encoding="UTF-8"?>
<!DOCTYPE svg PUBLIC "-//W3C//DTD SVG 1.1//EN" "http://www.w3.org/Graphics/SVG/1.1/DTD/svg11.dtd">
<!-- Creator: CorelDRAW X8 -->
<svg xmlns="http://www.w3.org/2000/svg" xml:space="preserve" width="32px" height="32px" version="1.1" style="shape-rendering:geometricPrecision; text-rendering:geometricPrecision; image-rendering:optimizeQuality; fill-rule:evenodd; clip-rule:evenodd"
viewBox="0 0 32 32"
 xmlns:xlink="http://www.w3.org/1999/xlink">
 <defs>
  <style type="text/css">
   <![CDATA[
    .fil1 {fill:#AFA26B}
    .fil2 {fill:#FEFEFE}
    .fil0 {fill:url(#id0)}
   ]]>
  </style>
  <linearGradient id="id0" gradientUnits="userSpaceOnUse" x1="-0" y1="16" x2="32.0012" y2="16">
   <stop offset="0" style="stop-opacity:1; stop-color:#006633"/>
   <stop offset="1" style="stop-opacity:1; stop-color:black"/>
  </linearGradient>
 </defs>
 <g id="Capa_x0020_1">
  <metadata id="CorelCorpID_0Corel-Layer"/>
  <rect class="fil0" width="32.0012" height="32.0012" rx="16" ry="16"/>
  <g id="_2031568317680">
   <path class="fil1" d="M27 6c0,0 -1,0 -1,0 0,0 1,1 1,1 0,0 0,0 0,0 1,1 2,2 2,4 1,1 1,3 1,5 0,4 -1,7 -4,10 -2,2 -5,3 -8,4 0,0 0,0 0,0 0,0 0,0 0,0 3,-1 6,-2 8,-4 3,-3 4,-6 4,-10 0,-2 0,-4 0,-5 -1,-2 -2,-3 -3,-5 0,0 0,0 0,0 0,0 0,0 0,0zm-10 -4l-1 0c-4,0 -7,1 -10,4 -2,2 -4,6 -4,10 0,4 2,7 4,10 2,1 4,3 7,3 0,0 0,1 0,1 0,0 0,0 0,0 -3,-1 -5,-2 -7,-4 -3,-3 -4,-6 -4,-10 0,-4 1,-8 4,-10 3,-3 6,-5 10,-5 0,0 0,0 1,0 0,0 0,0 0,0 0,0 0,0 0,1 0,0 0,0 0,0 0,0 0,0 0,0z"/>
   <path class="fil2" d="M17 30c0,0 0,0 0,0 0,0 0,0 0,0 0,0 0,0 0,0 0,0 0,0 0,0zm1 -1c0,0 0,1 0,1 0,0 0,0 0,0 0,0 0,0 0,0 0,0 0,-1 0,-1zm-2 1c0,0 0,0 0,0 0,0 0,0 0,0 0,0 0,0 0,0 0,0 0,0 0,0zm-1 0c0,0 0,0 0,0 0,0 0,0 0,0 0,0 1,0 1,0 0,0 -1,0 -1,0zm-1 -1c0,0 0,1 0,1 0,0 0,0 0,0 0,0 1,0 1,0 0,0 -1,-1 -1,-1zm-1 0c0,0 0,0 0,1 0,0 0,0 0,0 1,0 1,0 1,0 0,-1 0,-1 -1,-1zm-10 -13c0,2 1,4 2,6 2,4 6,7 10,7 3,0 5,-1 7,-2 0,0 0,0 0,0 0,0 -1,0 -1,0 0,0 -1,0 -1,-1 -1,1 -3,1 -4,1l0 -1 0 -1 1 -1 -1 0c0,0 0,0 0,0 0,-1 0,-1 -1,-1l0 0 0 0 -1 0 -1 0c0,-1 0,-2 -1,-2l0 0 0 0 0 0c-1,0 -1,-1 -2,-1l0 0c0,0 -1,0 -1,0 -1,0 -1,0 -1,1l-2 -2 0 -1 0 0 1 -3 -2 -1 -1 -1c0,0 0,0 0,0 0,-1 0,-1 0,-2 0,0 0,0 0,0l0 0c0,0 0,0 0,0l0 0c0,0 0,0 1,0l0 0c0,0 0,0 0,0l0 0c0,0 0,0 0,-1l0 0c0,0 0,0 0,0l0 0 0 0 0 0 0 0 0 0 0 0 0 0c0,0 0,0 0,0l0 0 0 -1 0 0c0,0 0,0 0,0l0 0 0 0 0 0c0,0 0,0 0,0l0 0 0 0c0,0 0,0 0,0l0 0 0 0c2,-3 5,-5 8,-6 0,0 0,0 0,0 -6,1 -10,7 -10,13zm2 -11c0,0 0,0 0,1 0,0 0,0 0,0 -2,1 -3,3 -3,4 -1,2 -1,4 -1,6 0,4 2,8 4,11 3,2 7,4 11,4 4,0 8,-1 10,-4 3,-2 5,-6 5,-9 1,-1 1,-1 1,-1 0,0 -1,0 -1,0 0,0 0,0 0,0 0,0 0,0 0,1 0,3 -2,7 -5,9 -2,2 -6,4 -10,4 -4,0 -8,-2 -10,-5 -3,-2 -5,-6 -5,-10 0,-2 0,-4 1,-6 1,-1 2,-3 3,-4 0,0 0,0 0,0 0,0 0,0 0,0 0,-1 0,-1 0,-1zm21 19c1,-1 2,-3 3,-5 0,0 0,-1 0,-1 0,-1 0,-1 0,-1 0,-1 0,-1 0,-1l0 0 0 0c0,0 0,0 0,0 0,-6 -3,-10 -8,-12 -1,1 -2,2 -3,4l7 4 -5 -2c-1,0 -1,-1 -1,-1 -1,0 -3,1 -3,2 0,1 0,1 0,1l0 0 1 3 0 1 0 1 -1 2c0,1 0,1 1,1l1 1 3 0 -1 2 6 1zm2 -3l0 0 -1 -2 1 2 0 -1 0 -1c0,0 0,-1 0,-1 0,-1 1,-2 1,-2l0 0c-1,0 -1,0 -1,0 0,-1 0,-1 1,-1 -1,-8 -7,-11 -7,-11 3,4 3,7 3,8 0,1 -1,2 -1,2l2 0c0,0 0,1 0,1 0,1 -1,1 -1,1 0,0 0,1 0,2 -1,1 -2,1 -2,1l-4 1c0,0 2,1 2,1 0,1 0,1 0,1l5 2 1 -2 1 -1zm-6 -8l-4 -2 5 2 0 0 0 1 0 0 0 0c0,0 0,0 1,0l2 1 -2 0c1,0 1,1 1,2 -1,0 -1,1 -2,1l-2 1 1 -1c0,0 0,0 -1,0 -1,0 -2,-1 -1,-3 0,-1 1,-1 2,-2zm-10 -5c0,0 1,0 1,0 1,-1 1,-1 0,-2 0,0 -1,0 -1,0 -1,1 -1,1 0,2zm-1 10c1,1 2,1 2,0 0,0 0,-1 0,-1 0,-1 -1,-1 -2,0 0,0 0,1 0,1zm-5 1l-1 1c0,1 1,2 2,3 0,-1 0,-1 0,-1l0 -1 -1 -2z"/>
   <path class="fil1" d="M4 12l1 0 1 1 2 2 2 2c0,1 0,2 1,2 0,1 2,1 3,0 1,-1 1,-2 0,-3 -1,-1 -2,-1 -2,-1l-2 -1c1,-1 1,-2 1,-3l1 -2c1,1 2,0 2,0 1,-1 1,-1 1,-2 1,0 1,0 2,-1 0,0 0,0 0,0l0 -3 -1 0 0 0c-1,0 -2,0 -3,0l0 0 0 0 0 0 0 0 0 0 0 0 0 0 0 0 0 0 0 0 0 0 0 0 0 0 0 0 0 0 0 0 0 0 0 0 0 0 0 0 0 0 0 0 0 0 0 0 0 0 0 0 0 0 0 0 0 0 0 0 0 0 0 0 0 0 0 0 0 0 0 0 0 0 0 0 0 0 0 0 0 0 0 0 0 0 0 0 0 0 0 0 0 0 0 0 0 0 0 0 0 0 0 0 0 0 0 0 0 0 0 0 0 0 0 0 0 0 0 0 0 0 0 0 0 0 0 0 0 0 0 0 0 0c0,0 -1,1 -1,2 0,0 -1,0 -1,0 -1,1 -1,2 -1,3l-1 1c-1,-1 -2,-1 -3,0l-1 0 0 0 0 0 0 0 0 0 0 0 0 0 0 0 0 0 0 0 0 0 0 0 0 0 0 0 0 0 0 0 0 0 0 0 0 0 0 0 0 0 0 0 0 0 0 0 0 0 0 0 0 0 0 0 0 0 0 0 0 0 0 0 0 0 0 0 0 0 0 0 0 0 0 0 0 0 0 0 0 0 0 0 0 0 0 0 0 0 0 0 0 0 0 0 0 0 0 0 0 0 0 0 0 0 0 0 0 0 0 0 0 0 0 0 0 0 0 0 0 0 0 0 0 0 0 0 0 0 0 0 0 0 0 0 0 0 0 0 0 0 0 0 0 0 0 0 0 0 0 0 0 0 0 0 0 0 0 0 0 0 0 0 0 0 0 0 0 0 0 0 0 0 0 0 0 0 0 0 0 0 0 0 0 0 0 0 0 0 0 0 0 0 0 0 0 0 0 0 0 0 0 0 0 0 0 0 0 0 0 0 0 0 0 0 0 0 0 0 0 0 0 0 0 0 0 0 0 0 0 0 0 0 0 0 0 0 0 0 0 0 0 0 0 0 0 0 0 0 0 0 0 0 0 0 0 0 0 0 0 0 0 0 0 0 0 0 0 0 0 0 0 0 0 0 0 0 0 0 0 0 0 0 0 0 0 0 0 0 0 0 0 0 0 0 0 0 0 0 0 0 0 0 0 0 0 0 0 0 0 0 0 0 0 0 0 0 0 0 0 0 0 0 0 0 0 0 0 0 0 0 0 0 0 0 0 0 0 0 0 0 0 0 0 0 0 0 0 0 0 0 0 0 0 0 0 0 0 0 0 0 0 0 0 0 0 0 0 0 0 0 0 0 0 0 0 0 0 0 0 0 0 0 0 0 0 0 0 0 0 0 0 0 0 0 0 0 0 0 0 0 0 0 0 0 0 0 0 0 0 0 0 0 0 1 0 0 0 0 0 0 0 0 0 0 0 0 0 0 0 0 0 0 0 0 0 0 0 0 0 0 0 0 0 0 0 0 0 0 0 0 0 0 0 0 0 0 0 0 0 0 0 0 0 0 0 0 0 0 0 0 0 0 0 0 0 0 0 0 0 0 0 0 0 0 0 0 0 0 0 0 0 0 0 0 0 0 0 0 0 0 0 0 0 0 0 0 0 0 0 0 0 0 0 0 0 0 0 0 0 0 0 0 0 0 0 0 0 0 0 0 0 0 0 0 0 0 0 0 0 0 0 0 0 0 0 0 0 0 0 0 0 0 0 0 0 0 0 0 0 0 0 0 0 0 0 0 0 0 0 0 0 0 0 0 0 0 0 0 0 0 0 0 0 0 0 0 0 0 0 0 0 0 0 0 0 0 0 0 0 0 0 0 0 0 0 0 0 0 0 0 0 0 0 0 0 0 0 0 0 0 0 0 0 0 0 0 0 0 0 0 0 0 0 0 0 0 0 0 0 0 0 0 0 0 0 0 0 0 0 0 0 0 0 0 0 0 0 0 0 0 0 0 0 0 0 0 0 0 0 0 0 0 0 0 0 0 0 0 0 0 0 0 0 0 0 0 0 0 0 0 0 0 0 0 0 0 0 0 0 0 0 0 0 0 0 0 0 0 0 0 0 0 0 0 0 0 0 0 0 0 0 0 0 0 0 0 0 0 0 0 0 0 0 0 0 0 0 0 0 0 0 0 0 1 0 0 0 0 0 0 0 0 0 0 0 0 0 0 0 0 0 0 0 0 0 0 0 0 0 0 0 0 0 0 0 0 0 0 0 0 0 0 0 0 0 0 0 0 0 0 0 0 0 0 0 0 0 0 0 0 0 0 0 0 0 0 0 0 0 0 0 0 0 0 0 0 0 0 0 0 0 0 0 0 0 0 0 0 0 0 0 0 0 0 0 0 0 0 0 0 0 0 0 0 0 0 0 0 0 0 0 0 0 0 0 0 0 0 0 0 0 0 0 0 0 0 0 0 0 0 0 0 0 0 0 0 0 0 0 0 0 0 0 0 0 0 0 0 0 0 0 0 0 0 0 0 0 0 0 0 0 0 0 0 0 0 0 0 0 0 0 0 0 0 0 0 0 0 0 0 0 0 0 0 0 0 0 0 0 0 0 0 0 0 0 0 0 0 0 0 0 0 0 0 0 0 0 0 0 0 0 0 0 0 0 0 0 0 0 0 0 0 0 0 0 0 0 0 0 0 0 0 0 0 0 0 0 0 0 0 0 0 0 0 0 0 0 0 0 0 0 0 0 0 0 0 0 0 0 0 0 0 -1 0 0 0 0 0 0 0 0 0 0 0 0 0 0 0 0 0 0 0 0 0 0 0 0 0 0 0 0 0 0 0 0 0 0 0 0 0 0 0 0 0 0 0 0 0 0 0 0 0 0 0 0 0 0 0 0 0 0 0 0 0 0 0 0 0 0 0 0 0 0 0 0 0 0 0 0 0 0 0 0 0 0 0 0 0 0 0 0 0 0 0 0 0 0 0 0 0 0 0 0 0 0 0 0 0 0 0 0 0 0 0 0 0 0 0 0 0 0 0 0 0 0 0 0 0 0 0 0 0 0 0 0 0 0 0 0 0 0 0 0 0 0 0 0 0 0 0 0 0 0 0 0 0 0 0 0 0 0 0 0 0 0 0 0 0 0 0 0 0 0 0 0 0 0 0 0 0 0 0 0 0 0 0 0 0 0 0 0 0 0 0 0 0 0 0 0 0 0 0 0 0 0 0 0 0 0 0 0 0 0 0 0 0 0 0 0 0 0 0 0 0 0 0 0 0 0 0 0 0 0 0 0 0 0 0 0 0 0 0 0 0 0 0 0 0 0 0 0 0 0 0 0 0 0 0 0 0 0 0 0 0 0 0 0 0 0 0 0 0 0 0 0 0 0 0 0 0 0 0 0 0 0 0 0 0 0 0 0 0 0 0 0 0 0 0 0 0 0 0 0 0 0 0 0 0 0 0 0 0 0 0 0 0 0 0 0 0 0 0 0 0 0 0 0 0 0 0 0 0 0 0 0 0 0 0 0 0 0 0 0 0 0 0 0 0 0 0 0 0 0 0 0 0 0 0 0 0 0 1zm9 12l1 0 1 0 0 1 1 0 -1 0 0 2c0,0 -3,-1 -5,-2 2,0 3,-1 3,-1zm9 -20c0,0 6,3 7,11 -1,0 -1,0 -1,1 0,0 0,0 1,0l0 0c0,0 -1,1 -1,2 0,0 0,1 0,1l0 1 0 1 -1 -2 0 -3 -1 3 -2 1 1 2 3 -1 -1 1 -1 2 -5 -2c0,0 0,0 0,-1 0,0 -2,-1 -2,-1l4 -1c0,0 1,0 2,-1 0,-1 0,-2 0,-2 0,0 1,0 1,-1 0,0 0,-1 0,-1l-2 0c0,0 1,-1 1,-2 0,-1 0,-4 -3,-8zm3 21l0 1c0,0 0,-1 0,-1l0 0zm-2 2c0,0 1,-1 1,-1l0 -1 -1 0 0 1c0,1 0,1 0,1l0 0zm0 -3l-1 2c0,0 0,0 0,0l-1 0c0,0 0,0 0,0l1 -2 1 0zm-2 0l0 1c0,0 0,0 0,0l-1 0c0,0 0,0 0,0l0 -1 1 0zm-9 -16c0,0 1,0 1,0 1,-1 1,-1 0,-2 0,0 -1,0 -1,0 -1,1 -1,1 0,2zm-1 10c1,1 2,1 2,0 0,0 0,-1 0,-1 0,-1 -1,-1 -2,0 0,0 0,1 0,1zm0 -9l-2 2 0 2 -2 0 0 -3 2 0 2 -1zm3 -4c1,1 1,1 2,0 0,0 0,-1 0,-1 -1,-1 -1,-1 -2,0 0,0 0,1 0,1z"/>
  </g>
 </g>
</svg>
